<?xml version="1.0" standalone="no"?>
<!DOCTYPE svg PUBLIC "-//W3C//DTD SVG 20010904//EN"
 "http://www.w3.org/TR/2001/REC-SVG-20010904/DTD/svg10.dtd">
<svg version="1.0" xmlns="http://www.w3.org/2000/svg"
 width="1592.000000pt" height="1592.000000pt" viewBox="0 0 1592.000000 1592.000000"
 preserveAspectRatio="xMidYMid meet">
<metadata>
Created by potrace 1.14, written by Peter Selinger 2001-2017
</metadata>
<g transform="translate(0.000000,1592.000000) scale(0.100000,-0.100000)"
fill="#000000" stroke="none">
<path d="M7184 14806 c-3 -7 11 -42 30 -77 33 -61 73 -176 64 -185 -3 -2 -43
9 -90 25 -185 62 -453 123 -698 157 -152 22 -597 25 -643 6 -52 -22 -26 -37
79 -44 54 -4 166 -12 249 -18 82 -6 215 -22 295 -35 156 -27 491 -106 472
-113 -6 -2 -60 1 -119 8 -429 44 -1015 10 -1369 -79 -222 -55 -529 -178 -529
-211 0 -12 23 -16 125 -21 69 -3 147 -10 174 -14 l49 -8 -129 -39 c-342 -105
-705 -283 -996 -488 -309 -218 -607 -515 -742 -739 -84 -141 -74 -160 55 -95
125 62 124 62 32 -59 -135 -178 -246 -370 -317 -551 -39 -97 -30 -104 89 -66
50 16 102 32 116 35 l26 6 -24 -88 c-78 -289 -112 -552 -120 -918 -8 -379 16
-618 82 -814 29 -86 75 -176 90 -176 6 0 28 35 51 78 l41 78 18 -68 c24 -88
87 -265 132 -371 l36 -83 -24 -17 c-95 -66 -186 -189 -225 -302 -100 -297 -1
-762 237 -1110 127 -187 472 -536 599 -607 183 -102 373 -129 611 -87 l36 6
77 -233 c130 -396 216 -542 470 -794 83 -82 188 -177 233 -210 l83 -60 -99
-12 c-317 -37 -519 -108 -619 -218 -55 -60 -80 -125 -89 -230 -5 -62 -13 -83
-70 -185 -71 -129 -100 -199 -115 -280 -15 -81 -18 -84 -84 -92 -165 -21 -321
-104 -450 -239 -151 -160 -197 -269 -328 -794 -142 -572 -434 -1871 -622
-2775 -54 -258 -62 -402 -31 -515 10 -33 28 -141 42 -240 42 -303 118 -746
141 -827 5 -15 18 -18 94 -18 l88 0 -13 57 c-38 161 -113 614 -150 908 -9 72
-23 149 -31 173 -25 76 -17 172 35 433 170 840 569 2601 594 2623 7 6 31 34
52 63 61 83 161 143 237 143 l29 0 -7 -52 c-3 -29 -26 -171 -50 -314 -24 -144
-46 -295 -49 -335 l-5 -74 31 90 c46 138 87 314 110 475 11 80 22 160 25 178
6 39 20 40 107 11 158 -53 314 -165 489 -350 231 -245 363 -415 360 -464 -4
-56 -81 -508 -132 -780 -67 -357 -107 -543 -191 -885 -96 -393 -85 -360 -115
-360 -33 0 -84 -51 -84 -83 0 -13 65 -240 145 -503 123 -404 227 -767 263
-914 l8 -35 237 -3 236 -2 42 52 c70 88 184 266 247 388 77 146 130 281 187
472 25 84 47 154 49 155 2 2 31 3 64 1 l60 -3 -45 -145 c-97 -315 -219 -589
-350 -790 -89 -136 -86 -130 -75 -130 16 0 137 194 206 328 79 158 158 356
227 575 32 101 59 167 66 167 7 0 13 -8 13 -18 0 -24 -92 -320 -137 -442 -48
-130 -180 -396 -253 -508 -33 -51 -60 -95 -60 -98 0 -53 207 310 286 501 48
118 104 281 147 430 l35 120 338 6 c187 4 433 14 548 23 173 13 246 14 435 5
124 -6 295 -14 379 -18 l154 -6 53 -211 c83 -327 240 -854 256 -854 3 0 -13
62 -38 138 -64 199 -155 519 -207 729 -49 194 -52 213 -36 197 6 -6 35 -105
64 -220 59 -227 86 -324 177 -629 33 -110 65 -204 71 -210 8 -7 9 -5 5 8 -38
107 -187 625 -247 860 -41 157 -46 189 -34 194 8 3 17 3 21 0 3 -3 36 -127 73
-274 57 -225 165 -612 211 -755 11 -33 16 -38 44 -38 31 0 32 2 44 58 7 31 15
64 17 74 4 13 -2 16 -28 15 -31 -2 -35 2 -64 59 -19 37 -50 137 -79 255 -27
107 -52 196 -56 199 -4 3 -31 100 -60 215 -29 116 -56 215 -60 221 -6 7 -82
14 -201 18 -106 4 -240 11 -298 16 -140 12 -468 12 -621 0 -321 -25 -532 -30
-792 -20 -146 6 -272 8 -280 4 -9 -3 -19 -20 -23 -37 -3 -18 -35 -121 -71
-229 -72 -221 -167 -425 -279 -596 l-67 -104 -12 29 c-7 15 -36 55 -64 88 -67
77 -94 149 -89 232 2 35 2 63 0 63 -10 0 -98 -204 -132 -309 -29 -87 -40 -139
-40 -181 0 -33 -4 -60 -10 -60 -5 0 -10 8 -10 18 0 26 -100 399 -164 609 l-55
183 40 96 c21 54 39 101 39 106 0 5 -23 -16 -52 -47 -36 -40 -53 -53 -58 -43
-22 40 -111 356 -107 378 3 14 43 176 91 360 155 607 269 1172 371 1844 l34
221 -77 77 c-49 51 -79 73 -83 65 -3 -6 -12 -59 -18 -117 -19 -157 -14 -155
-91 -39 -166 249 -390 494 -542 593 -121 79 -227 124 -323 138 -18 3 -19 11
-17 143 2 147 -8 199 -41 219 -16 9 -24 4 -56 -31 -37 -41 -101 -150 -101
-172 0 -7 7 -7 24 0 59 27 106 -22 106 -110 0 -37 -2 -39 -37 -46 -85 -16
-196 -94 -244 -171 -12 -19 -23 -33 -26 -31 -6 7 93 392 129 502 43 134 89
208 187 305 137 136 268 187 451 177 116 -7 192 -26 290 -75 90 -44 205 -152
243 -228 14 -27 45 -75 69 -105 61 -75 154 -209 189 -272 l29 -52 0 50 c0 86
-38 261 -75 348 -7 18 -6 18 31 2 239 -101 805 -291 1044 -349 198 -48 379
-86 414 -86 45 0 50 -14 20 -61 -16 -24 -29 -45 -29 -46 -1 -2 -33 6 -71 17
-38 11 -71 20 -74 20 -3 -1 26 -17 63 -36 54 -28 67 -39 62 -52 -16 -40 -27
-152 -22 -219 9 -117 66 -216 150 -259 44 -23 121 -14 175 19 l42 27 -1 -52
c-1 -129 -18 -341 -34 -424 -22 -109 -16 -142 25 -150 16 -4 38 -15 49 -26 26
-24 91 -16 98 12 3 10 13 20 24 23 13 4 19 14 19 36 0 17 6 45 14 63 19 43 36
295 36 529 0 103 3 200 6 216 6 29 8 31 74 37 38 3 75 8 83 11 17 7 27 -131
27 -400 0 -344 34 -569 93 -626 20 -18 41 -29 57 -28 14 1 32 -1 40 -4 49 -19
94 19 104 87 6 40 10 46 32 46 15 0 24 6 24 15 0 10 -10 15 -30 15 l-30 0 0
80 c0 66 -2 78 -15 74 -10 -4 -15 -19 -15 -42 l0 -36 -20 20 c-27 26 -39 157
-40 412 0 180 1 192 17 177 58 -58 155 -43 241 38 74 71 94 114 100 214 6 103
-17 206 -63 292 -19 36 -34 65 -32 65 1 1 33 16 70 35 163 81 259 161 336 280
27 42 70 96 96 121 l47 45 72 -76 c47 -50 86 -103 113 -157 l42 -82 65 56 c37
31 66 61 66 66 0 22 -65 130 -115 191 -29 35 -78 86 -109 113 l-56 48 0 91 c0
87 -24 242 -53 350 -8 28 -17 67 -21 87 l-7 37 71 36 c90 45 166 93 263 167
43 33 80 58 81 56 2 -1 131 -156 287 -343 156 -187 292 -351 301 -365 9 -14
37 -47 62 -73 25 -27 69 -78 97 -113 44 -54 57 -64 83 -64 17 0 36 4 43 8 8 5
-127 174 -415 518 -235 281 -584 698 -775 927 l-348 416 15 28 c17 35 92 106
132 126 72 36 5 107 864 -917 l793 -945 28 16 c16 10 29 21 29 24 0 4 -40 56
-90 114 -49 58 -90 110 -90 113 0 4 -20 28 -43 52 -24 25 -186 215 -360 422
l-316 378 63 87 c320 445 542 1051 670 1833 72 435 103 823 85 1067 -10 132
-10 146 9 200 34 99 50 174 61 283 49 495 51 502 154 545 33 14 37 19 37 51 0
64 -32 249 -46 263 -11 12 -28 12 -108 3 -177 -22 -186 -19 -186 56 0 20 -12
137 -26 259 l-27 223 36 78 c68 150 102 329 95 513 -2 60 -2 109 0 109 2 0 19
-12 38 -26 20 -16 40 -24 50 -20 25 10 14 166 -21 281 -15 50 -30 98 -32 108
-5 17 -3 17 45 -1 67 -26 76 -16 57 59 -44 167 -209 456 -385 672 l-72 89 80
-7 c58 -5 81 -4 87 5 24 38 -253 345 -427 473 -85 63 -232 155 -302 188 l-44
22 70 103 c41 58 68 108 65 117 -7 19 -224 90 -377 122 -194 41 -189 33 -50
99 68 33 141 64 163 71 48 14 70 40 47 55 -24 15 -159 49 -240 60 -93 13 -420
14 -520 1 -41 -6 -106 -17 -145 -25 -38 -8 -72 -13 -74 -11 -2 3 -6 59 -9 125
-3 73 -9 124 -16 129 -27 23 -212 -35 -362 -113 l-85 -44 -52 50 c-144 140
-313 230 -556 299 -119 33 -130 34 -137 15z m1971 -2533 c-56 -134 -174 -327
-249 -408 -75 -80 -62 -96 48 -59 263 88 437 202 595 389 l42 50 -24 -65 c-48
-129 -126 -258 -196 -324 -34 -32 -39 -51 -17 -59 16 -6 40 9 114 71 101 86
189 226 213 341 7 31 15 59 18 63 3 4 46 -25 95 -65 69 -55 92 -81 103 -112
24 -69 91 -334 117 -465 43 -212 137 -913 124 -925 -3 -3 -52 6 -108 20 -57
13 -150 28 -208 31 -101 7 -105 8 -170 51 -124 81 -271 119 -426 109 -165 -11
-426 -81 -581 -156 -100 -48 -130 -72 -155 -121 -23 -43 -27 -138 -8 -157 18
-18 71 -14 124 8 26 11 49 19 51 16 2 -2 -48 -42 -112 -89 -99 -74 -129 -91
-208 -116 -137 -43 -225 -54 -389 -48 -141 4 -144 5 -207 40 -35 19 -96 45
-135 57 -71 23 -72 24 -73 57 -1 19 -12 56 -25 81 -44 86 -164 125 -440 142
-180 12 -396 -1 -517 -30 -163 -40 -318 -131 -420 -249 -37 -43 -61 -61 -93
-70 -24 -7 -155 -55 -293 -106 -171 -64 -274 -96 -325 -103 -215 -30 -440 -55
-446 -50 -3 4 -8 69 -11 145 -9 217 23 331 157 563 40 69 85 157 100 195 16
39 35 71 42 72 234 33 367 72 538 158 256 128 407 260 560 489 50 75 54 78 84
72 452 -94 962 -35 1334 153 l63 32 197 3 c164 3 210 7 277 25 152 41 281 116
376 218 l55 60 89 6 c110 8 192 29 265 66 72 37 73 37 55 -6z m765 -1788 c77
-24 139 -65 183 -124 l39 -51 3 -142 c2 -79 13 -225 25 -325 l21 -183 -29 -69
c-44 -104 -115 -206 -211 -301 -99 -98 -202 -156 -336 -191 -104 -26 -261 -35
-349 -20 -194 34 -385 166 -490 339 -35 57 -91 191 -83 198 2 2 42 -11 88 -30
152 -62 199 -70 364 -70 181 1 259 19 413 94 117 58 210 142 301 270 50 71
121 199 121 218 0 5 -31 7 -70 4 -74 -5 -84 2 -50 33 35 32 24 38 -51 31 -63
-6 -77 -3 -123 18 -92 43 -135 49 -310 43 -153 -6 -440 -39 -626 -71 -46 -8
-86 -13 -89 -10 -3 3 29 38 70 78 58 55 98 84 170 119 141 69 350 127 565 156
110 15 389 7 454 -14z m-2610 -314 c125 -27 244 -85 299 -147 104 -118 127
-357 61 -620 -59 -235 -231 -447 -455 -559 -144 -73 -218 -88 -430 -88 -154 0
-191 3 -260 22 -354 96 -596 390 -646 783 -19 152 24 292 116 376 128 118 395
206 730 241 55 6 116 13 135 15 85 10 358 -4 450 -23z m2230 -10 c33 -8 33 -8
10 -14 -14 -3 -126 -15 -250 -27 -313 -30 -507 -59 -637 -96 -20 -6 -23 -3
-23 25 0 28 4 31 53 45 65 19 373 64 515 76 111 9 271 4 332 -9z m190 -161 c9
-5 22 -19 29 -33 11 -21 9 -31 -19 -88 -46 -90 -136 -177 -230 -222 -115 -54
-210 -72 -375 -71 -167 2 -256 21 -385 86 l-85 43 -9 52 c-16 94 19 133 130
148 l52 7 7 -44 c24 -151 137 -251 285 -252 115 -1 215 63 262 168 17 39 22
68 22 128 l-1 77 71 5 c39 4 89 8 111 10 48 4 114 -3 135 -14z m-1413 -38 c8
-5 9 -33 4 -101 -9 -109 0 -217 34 -387 47 -234 133 -432 289 -666 103 -155
126 -213 126 -313 0 -95 -27 -168 -86 -234 -86 -95 -206 -128 -402 -108 -158
16 -231 13 -312 -13 -49 -16 -100 -24 -148 -24 -70 -1 -75 1 -97 29 -36 44
-49 114 -41 221 4 56 2 95 -3 99 -14 8 -58 -71 -70 -123 -12 -56 1 -149 30
-209 27 -55 91 -100 158 -108 25 -3 83 -13 128 -21 44 -8 132 -22 195 -29 62
-8 142 -20 178 -26 63 -12 68 -11 170 24 64 21 151 62 223 104 65 37 135 77
155 88 107 56 144 114 144 219 -1 101 -31 169 -105 241 -35 33 -72 76 -82 95
-10 19 -44 73 -75 120 -139 207 -218 381 -275 606 -43 164 -44 197 -5 86 126
-359 380 -591 725 -663 119 -25 357 -27 469 -4 181 37 342 127 504 279 38 36
71 66 73 66 8 0 -10 -343 -25 -485 -88 -801 -280 -1489 -542 -1949 -66 -114
-187 -297 -195 -294 -4 2 -130 149 -279 328 -344 411 -327 392 -351 385 -65
-18 -54 -32 -90 109 -37 145 -83 207 -173 236 -53 17 -137 7 -202 -25 -153
-75 -280 -337 -246 -508 23 -117 104 -231 187 -263 57 -21 196 -15 276 12 l56
20 57 -68 c31 -37 56 -69 56 -72 0 -2 -28 -15 -63 -29 -98 -39 -209 -59 -312
-55 -84 3 -90 2 -93 -17 -4 -32 37 -63 108 -81 127 -32 252 1 350 92 30 28 54
44 58 38 4 -6 87 -105 184 -221 l177 -211 -57 -45 c-209 -164 -460 -273 -722
-316 -609 -98 -1026 -29 -1612 268 -586 297 -948 538 -1193 792 -111 115 -229
281 -281 395 -44 93 -194 549 -194 587 0 35 -49 87 -82 87 -13 0 -57 -10 -98
-21 -41 -12 -121 -23 -176 -26 -128 -7 -223 13 -337 69 -74 37 -98 57 -257
217 -267 269 -359 395 -447 612 -67 164 -94 282 -100 434 -9 219 26 325 141
433 81 75 155 106 236 99 70 -6 189 -52 266 -102 102 -67 333 -311 388 -410
40 -72 83 -125 101 -125 8 0 15 3 15 8 0 4 40 8 88 9 107 1 161 15 192 48 13
14 34 25 47 25 13 0 26 6 29 14 3 7 -15 128 -39 267 -24 140 -44 255 -43 256
2 2 79 4 172 5 165 3 170 2 226 -24 70 -32 141 -103 162 -161 8 -23 26 -85 40
-137 54 -198 183 -407 352 -570 150 -144 293 -227 479 -277 90 -24 118 -26
270 -26 196 -1 305 16 462 68 389 130 671 422 749 776 20 92 29 292 17 381 -6
42 -6 74 0 85 26 49 85 95 147 114 33 10 202 11 217 1z m793 -12 c-17 -11 -97
-14 -86 -3 7 8 89 21 96 16 2 -2 -2 -8 -10 -13z m-3030 -3710 l25 -20 -85 0
c-106 -1 -211 -20 -315 -56 -71 -25 -96 -28 -215 -30 l-134 -2 -28 -31 c-58
-65 -22 -140 110 -228 62 -41 325 -165 607 -288 435 -188 555 -244 792 -371
139 -74 319 -166 400 -205 149 -71 366 -190 359 -197 -10 -10 -162 22 -173 36
-34 42 -89 -40 -81 -120 3 -29 8 -33 56 -46 l53 -15 -43 -19 c-41 -18 -47 -19
-168 -3 -544 69 -1102 195 -1425 322 -198 77 -278 123 -360 202 -38 38 -96 87
-127 110 -62 44 -93 93 -104 159 -5 33 2 57 41 151 26 61 49 111 50 111 1 0
37 -16 79 -35 43 -19 80 -35 84 -35 4 0 -41 32 -100 70 -116 75 -145 108 -180
209 -46 129 17 208 213 270 135 42 383 78 549 80 80 0 99 -3 120 -19z m835
-445 c208 -93 515 -183 670 -197 l30 -3 10 -94 10 -95 122 -50 123 -51 14 -45
c24 -74 27 -104 17 -151 -10 -46 -45 -84 -157 -170 l-51 -39 -74 31 c-146 62
-476 219 -614 291 -362 192 -417 220 -525 268 -63 29 -116 53 -118 55 -2 1 8
28 22 59 25 55 94 260 115 343 l12 43 167 -84 c92 -46 194 -96 227 -111z
m1789 -144 c3 -21 3 -67 -1 -102 -4 -41 -3 -60 4 -56 27 17 43 -19 55 -120 14
-126 3 -215 -40 -307 -63 -134 -255 -275 -488 -359 -66 -24 -71 -24 -97 -9
-15 9 -27 19 -27 22 0 3 21 16 48 30 41 22 47 29 50 60 2 38 -14 77 -39 93
-12 7 -29 1 -70 -24 -63 -40 -104 -59 -126 -59 -8 0 40 37 108 82 156 103 239
169 310 245 115 124 218 314 247 454 15 73 21 82 53 88 4 0 9 -17 13 -38z
m-179 -32 c14 -44 6 -88 -30 -160 -79 -155 -147 -245 -259 -337 -91 -76 -134
-102 -168 -102 l-28 0 36 50 c22 31 55 103 83 184 52 147 86 201 181 290 33
30 60 59 60 64 0 5 24 14 53 19 28 6 55 11 59 12 4 0 10 -8 13 -20z m-374
-789 c2 -8 1 -16 -3 -18 -4 -1 -28 -11 -54 -22 -52 -23 -64 -24 -64 -10 0 6 6
10 13 10 8 0 34 13 58 29 24 17 44 29 45 28 1 -1 4 -9 5 -17z m-526 -99 c-44
-14 -50 -13 -130 13 -47 15 -85 31 -85 35 0 4 59 -2 131 -14 l130 -20 -46 -14z
m291 8 c16 -13 18 -57 5 -78 -8 -12 -11 -8 -17 15 -8 36 -31 74 -44 74 -6 0
-3 -11 5 -24 13 -19 14 -29 5 -45 -21 -39 -45 -21 -46 36 0 32 3 40 14 35 10
-3 13 -1 8 6 -8 14 49 -2 70 -19z m-109 -15 c4 -10 -11 -33 -45 -67 -59 -61
-96 -136 -124 -257 -16 -70 -21 -147 -29 -445 -10 -407 -14 -464 -35 -472 -27
-10 -45 17 -40 61 3 23 8 201 11 396 6 358 14 456 51 581 22 74 71 165 106
195 35 28 95 33 105 8z m218 -55 c9 -17 41 -136 70 -264 68 -294 94 -348 154
-316 25 14 61 89 61 127 -1 102 -57 252 -133 353 -26 35 -46 65 -44 67 10 10
93 -65 131 -120 94 -131 124 -336 63 -428 -41 -59 -124 -91 -156 -59 -44 44
-93 221 -121 440 -13 105 -26 164 -39 187 -16 27 -18 44 -5 44 2 0 11 -14 19
-31z m-449 -47 c-10 -19 -33 -35 -73 -51 -196 -81 -323 -255 -323 -443 0 -102
37 -157 112 -165 57 -6 124 28 158 81 l25 39 3 -42 c2 -32 -1 -46 -15 -57 -74
-56 -183 -67 -245 -25 -81 56 -109 145 -84 267 22 108 55 172 131 253 54 57
86 80 151 112 45 22 101 44 125 48 24 5 45 9 47 10 1 1 -4 -12 -12 -27z m-124
-197 c6 -6 -15 -131 -23 -140 -12 -11 -139 27 -139 41 0 8 19 35 41 59 35 38
48 45 79 45 20 0 39 -2 42 -5z m388 -111 l0 -117 -76 6 c-42 4 -80 9 -85 13
-15 9 -10 57 14 129 26 75 35 82 110 84 l37 1 0 -116z m379 41 c0 -5 -6 1 -14
15 -8 14 -14 30 -14 35 0 6 6 -1 14 -15 8 -14 14 -29 14 -35z m-272 -87 c-2
-13 -4 -3 -4 22 0 25 2 35 4 23 2 -13 2 -33 0 -45z m-558 -59 c19 -8 22 -14
17 -37 -12 -50 -51 -117 -69 -120 -75 -14 -116 66 -87 170 l11 37 52 -20 c29
-12 63 -25 76 -30z m558 -271 c-1 -46 -3 -9 -3 82 0 91 2 128 3 83 2 -46 2
-120 0 -165z m53 -331 c5 -102 12 -196 15 -209 3 -13 1 -30 -5 -38 -23 -34
-30 19 -30 229 0 118 2 212 5 209 3 -2 9 -88 15 -191z m-485 -148 c4 -6 17
-14 28 -18 l21 -8 -23 -12 c-30 -17 -51 -7 -51 24 0 26 14 33 25 14z m74 -85
c-15 -18 -60 -18 -85 1 -19 14 -19 14 1 9 14 -4 31 6 55 31 l35 36 3 -31 c2
-17 -2 -38 -9 -46z m-119 -14 c0 -5 7 -10 15 -10 8 0 15 -4 15 -8 0 -13 -23
-32 -39 -32 -12 0 -12 3 -3 12 17 17 15 31 -3 24 -15 -5 -20 5 -8 17 10 10 23
8 23 -3z m100 -46 c0 -8 -7 -17 -15 -20 -8 -4 -15 -14 -15 -23 0 -20 -28 -24
-46 -7 -9 8 -8 18 3 42 13 25 19 30 44 26 16 -2 29 -10 29 -18z m500 7 c5 -11
10 -27 10 -36 0 -24 -46 -65 -72 -64 -23 0 -23 0 -2 9 17 7 24 21 29 59 7 54
18 63 35 32z m-55 -42 c-19 -36 -48 -36 -53 0 -3 17 0 22 10 19 7 -3 22 -2 33
3 11 4 21 8 23 8 1 1 -5 -13 -13 -30z m90 -58 c3 -5 1 -13 -5 -16 -6 -4 -8
-15 -5 -26 4 -10 3 -24 -2 -31 -14 -23 -38 -14 -45 17 -6 24 -3 34 13 48 24
19 35 21 44 8z m-77 -44 c-4 -25 -28 -35 -28 -12 0 9 -4 14 -9 11 -5 -3 -11 0
-14 7 -4 10 4 14 24 14 24 0 29 -4 27 -20z"/>
<path d="M7010 9960 c-526 -57 -675 -92 -794 -189 -21 -17 -46 -31 -54 -31 -8
0 -45 -5 -81 -11 l-65 -12 32 -27 33 -27 -45 -12 c-25 -6 -58 -11 -75 -11 -16
0 -32 -4 -35 -9 -10 -16 148 -165 243 -230 123 -84 217 -126 338 -150 307 -63
617 6 889 198 90 63 194 158 194 178 0 21 -117 188 -152 218 -28 24 -36 25
-154 25 -143 0 -328 -18 -678 -66 -138 -18 -252 -32 -254 -30 -13 14 213 77
358 100 367 59 679 70 786 29 34 -13 10 19 -33 44 -44 26 -57 28 -163 30 -63
1 -194 -7 -290 -17z m374 -230 c14 -5 41 -33 61 -62 l36 -53 -64 -60 c-258
-241 -749 -332 -1032 -192 -56 27 -139 92 -170 133 -25 32 -25 35 -10 64 8 16
28 36 43 44 24 12 183 46 218 46 6 0 14 -25 17 -55 7 -65 56 -164 101 -202 96
-81 239 -102 348 -49 72 34 140 109 165 179 11 34 17 79 17 129 l-1 77 66 4
c142 7 181 7 205 -3z m-614 -55 c-28 -16 -59 -19 -87 -8 -15 6 -13 9 12 14 17
4 46 7 65 7 l35 1 -25 -14z"/>
<path d="M3824 9546 c-47 -21 -48 -33 -6 -41 20 -3 54 -11 76 -16 l38 -10 -40
-35 c-49 -41 -90 -122 -98 -190 -14 -115 30 -328 96 -471 67 -145 161 -258
298 -360 39 -30 72 -57 72 -61 0 -13 123 -89 220 -137 105 -51 155 -57 207
-25 94 57 96 207 4 312 -61 69 -75 118 -81 278 -5 134 -8 149 -34 196 -77 140
-316 407 -437 488 -107 71 -248 103 -315 72z"/>
<path d="M5885 5442 c93 -57 881 -409 891 -399 7 7 -248 140 -412 216 -195 90
-474 201 -503 201 -3 0 8 -8 24 -18z"/>
<path d="M8642 5316 c-18 -49 -121 -203 -168 -251 -22 -23 -73 -66 -114 -97
-69 -52 -108 -94 -97 -104 6 -7 156 102 206 149 71 68 128 152 161 238 17 45
30 85 28 91 -2 5 -9 -7 -16 -26z"/>
<path d="M12234 5993 c28 -79 82 -203 88 -203 4 0 17 19 29 41 25 51 19 68
-52 134 -50 47 -76 58 -65 28z"/>
<path d="M12402 5715 l-33 -54 133 -293 c131 -291 132 -293 130 -361 -2 -66 0
-73 87 -265 179 -395 371 -824 371 -829 0 -3 682 -1506 780 -1718 19 -42 25
-64 17 -73 -7 -9 -6 -11 8 -6 13 5 16 4 11 -4 -4 -7 -2 -12 4 -12 6 0 8 -5 5
-10 -5 -8 -12 -7 -23 2 -15 12 -16 11 -3 -5 7 -9 10 -17 6 -17 -4 0 -2 -6 4
-13 6 -8 7 -18 3 -22 -4 -5 -1 -5 6 -1 10 6 10 11 1 22 -8 10 -8 14 0 14 11 0
15 -13 12 -39 -2 -7 2 -10 7 -7 10 6 22 -38 22 -78 0 -25 53 -141 75 -162 21
-21 20 -26 -25 -112 -139 -267 -474 -576 -880 -812 -393 -229 -906 -410 -1160
-410 l-56 0 -51 63 c-29 36 -75 78 -106 98 -47 29 -186 187 -899 1029 -464
547 -921 1087 -1016 1200 -155 183 -179 208 -228 230 -44 20 -80 52 -184 164
-71 76 -127 143 -123 149 3 6 1 7 -6 3 -7 -5 -45 28 -101 85 l-89 92 -57 -12
c-32 -6 -81 -11 -111 -11 -40 0 -53 -4 -53 -15 0 -8 -7 -15 -15 -15 -11 0 -15
-11 -14 -42 1 -24 3 -35 6 -25 8 29 24 19 17 -10 -4 -16 -8 -30 -10 -32 -6 -8
-26 13 -39 42 -11 25 -13 26 -9 7 3 -14 17 -35 30 -47 25 -23 25 -24 15 -115
-22 -205 -34 -707 -27 -1223 3 -286 8 -547 11 -580 5 -59 5 -59 -8 -25 l-14
35 -7 -70 c-10 -100 8 -317 33 -397 23 -71 34 -208 46 -558 6 -166 -5 -398
-21 -452 -5 -16 4 -18 84 -18 l89 0 7 48 c3 26 9 93 13 150 l6 102 62 0 c34 0
97 4 141 10 43 5 268 19 499 30 703 34 1031 62 1125 95 51 18 129 64 187 111
23 19 52 34 65 35 13 0 53 8 89 17 62 17 69 17 105 2 65 -27 133 -41 207 -41
65 0 74 -3 129 -40 32 -22 81 -69 110 -104 60 -76 76 -81 211 -71 538 41 1347
445 1802 901 144 144 234 264 309 412 l49 97 -50 101 -51 100 65 80 c75 93
204 283 257 377 51 91 80 211 74 307 -5 79 -19 118 -67 181 -14 19 -36 71 -48
115 -23 80 -172 388 -241 495 -19 30 -81 100 -137 155 -56 55 -106 111 -110
125 -12 39 -52 103 -82 132 -106 102 -297 60 -363 -79 -26 -56 -29 -157 -6
-243 8 -30 17 -77 21 -105 l6 -50 -17 30 c-21 37 -177 376 -461 1005 l-214
475 5 58 c6 56 3 65 -55 190 -34 73 -102 224 -151 337 -50 113 -93 211 -97
217 -4 8 -19 -8 -39 -42z m1281 -1890 c33 -34 56 -87 39 -93 -29 -9 -72 -55
-93 -98 -40 -83 -23 -190 45 -278 l23 -31 -23 -154 c-13 -84 -26 -161 -29
-170 -5 -11 -21 14 -51 79 -35 74 -43 100 -36 115 15 32 -3 370 -22 429 -18
56 -21 138 -5 167 14 27 68 59 100 59 15 0 37 -11 52 -25z m198 -262 c77 -78
139 -156 139 -174 0 -4 -18 -9 -39 -13 -45 -7 -95 -44 -118 -89 -18 -37 -14
-140 12 -250 l16 -68 -64 -129 -64 -129 -40 88 -41 89 28 43 c25 38 32 70 56
231 l27 187 -25 33 c-78 103 -88 184 -30 251 29 33 54 20 143 -70z m-5001 -73
c0 -5 -4 -10 -10 -10 -5 0 -10 5 -10 10 0 6 5 10 10 10 6 0 10 -4 10 -10z
m553 -435 l90 -90 90 -393 c64 -283 86 -397 78 -405 -6 -6 -55 -11 -118 -11
-103 -1 -111 -3 -178 -36 -82 -41 -165 -120 -217 -206 -42 -69 -91 -205 -82
-228 9 -23 41 -39 58 -29 8 4 60 58 116 118 158 171 206 206 284 207 44 1 86
-9 86 -21 0 -18 -141 -189 -180 -219 -36 -28 -50 -33 -77 -29 l-33 6 0 -70 c0
-78 25 -143 60 -154 56 -18 114 57 245 313 80 157 95 180 139 213 102 77 243
123 406 131 l64 3 459 -540 c602 -707 727 -858 722 -863 -3 -3 -53 19 -112 48
-139 68 -161 74 -190 55 -30 -20 -48 -54 -35 -67 16 -16 3 -38 -22 -38 -13 0
-54 -24 -92 -53 -94 -73 -132 -94 -184 -106 -87 -19 -478 -49 -925 -72 -115
-5 -286 -14 -380 -20 -93 -5 -229 -12 -301 -16 l-131 -6 -7 134 c-3 74 -16
316 -28 539 -19 341 -22 517 -23 1115 0 638 13 1119 31 1174 3 10 57 -40 151
-140 81 -85 187 -194 236 -244z m4616 226 c48 -26 153 -227 176 -337 6 -30 5
-32 -34 -38 -50 -8 -99 -48 -123 -103 -10 -23 -30 -93 -43 -155 -25 -110 -55
-188 -94 -237 l-19 -25 -47 100 c-42 90 -45 102 -36 134 9 30 106 238 116 248
2 2 12 -2 23 -9 24 -15 52 -5 52 19 0 10 -13 58 -30 107 -16 49 -35 127 -42
173 l-12 84 27 24 c30 25 57 30 86 15z m244 -479 c10 -10 22 -44 28 -75 19
-93 -6 -175 -95 -321 -60 -98 -165 -248 -191 -274 -3 -3 -22 32 -43 79 l-39
83 39 50 c60 76 94 151 117 261 27 127 47 181 74 200 30 21 90 19 110 -3z
m-4347 -267 l177 -210 -44 -9 c-58 -11 -180 -42 -200 -50 -13 -6 -24 31 -69
231 -29 131 -55 245 -58 253 -7 22 -2 17 194 -215z"/>
<path d="M10366 4599 c-14 -11 -34 -35 -42 -52 l-16 -32 22 23 c66 69 147 52
249 -52 54 -54 55 -55 83 -40 23 12 26 18 19 32 -17 32 -101 103 -144 123 -58
26 -137 25 -171 -2z"/>
<path d="M9958 4359 c-10 -5 -22 -19 -28 -29 -10 -20 -10 -20 25 -3 55 26 123
0 209 -78 64 -59 68 -61 93 -48 l26 14 -59 53 c-76 68 -144 102 -203 102 -26
0 -54 -5 -63 -11z"/>
<path d="M9515 4130 l-20 -23 22 12 c12 6 32 11 45 11 35 0 119 -53 187 -117
58 -55 62 -58 86 -45 14 7 25 14 25 16 0 9 -143 118 -181 137 -23 13 -65 25
-93 27 -43 3 -54 1 -71 -18z"/>
<path d="M9127 3992 c-24 -26 -21 -36 5 -18 44 31 75 21 145 -46 35 -35 79
-84 96 -110 34 -54 31 -52 58 -38 18 10 17 14 -26 70 -46 58 -121 126 -162
148 -34 18 -97 15 -116 -6z"/>
<path d="M8773 3913 c-23 -9 -13 -20 15 -16 19 3 40 -5 69 -26 46 -33 157
-167 168 -201 5 -16 12 -19 28 -14 12 3 23 8 25 9 19 17 -155 212 -212 239
-33 16 -69 19 -93 9z"/>
<path d="M12615 3633 c-100 -30 -398 -97 -547 -123 -136 -24 -158 -30 -158
-42 0 -5 -4 -6 -10 -3 -5 3 -10 1 -10 -4 0 -6 -7 -11 -15 -11 -8 0 -15 -4 -15
-10 0 -5 -6 -10 -14 -10 -8 0 -16 -4 -18 -8 -6 -15 -229 -157 -428 -272 -107
-62 -235 -136 -285 -165 -161 -95 -592 -287 -797 -354 l-67 -22 207 -247 c114
-136 258 -308 320 -382 l114 -135 120 122 121 122 -34 43 c-18 24 -67 86 -109
138 -138 175 -151 199 -126 238 6 9 11 10 21 2 21 -17 54 40 60 105 2 18 8 29
15 27 8 -2 10 3 6 13 -3 9 -2 13 4 10 6 -3 13 1 16 9 3 9 10 14 14 11 11 -7
20 22 13 42 -4 10 -2 14 4 10 6 -4 14 4 17 18 4 14 11 25 17 25 6 0 7 -6 3
-12 -5 -9 -2 -9 9 1 18 14 22 22 10 20 -21 -3 -37 2 -28 9 13 9 39 64 36 75
-1 5 3 6 8 3 5 -4 3 -19 -6 -37 -8 -17 -13 -33 -10 -36 4 -3 9 6 13 21 3 14 9
24 13 22 3 -2 6 11 7 30 0 21 -3 31 -10 27 -6 -4 -5 1 2 9 8 9 20 14 28 11 8
-3 110 -132 226 -287 116 -154 218 -289 228 -299 16 -18 18 -17 44 13 14 17
26 38 26 46 0 9 4 13 9 10 8 -5 71 83 71 99 0 4 17 27 38 51 20 23 47 56 60
73 l23 30 -30 53 -31 54 267 274 c146 151 271 275 277 275 6 0 14 5 18 10 5 6
8 4 8 -5 0 -13 2 -13 9 -1 5 8 18 16 28 17 50 6 83 13 92 18 12 8 23 -22 14
-37 -3 -7 5 -3 18 9 32 28 54 41 45 26 -8 -13 6 -16 18 -5 4 4 21 8 39 8 18 0
39 4 47 9 12 7 13 6 3 -5 -7 -7 -13 -18 -13 -24 1 -5 10 1 22 15 12 14 19 18
15 9 -3 -11 2 -20 16 -26 28 -13 48 -6 40 13 -6 17 -24 19 -19 2 1 -7 1 -10
-1 -5 -3 4 -8 5 -12 3 -4 -3 -7 5 -8 17 0 12 1 17 4 10 2 -7 11 -9 19 -6 7 3
12 8 9 12 -2 4 2 8 10 8 7 0 12 -8 10 -17 -2 -9 6 -27 17 -41 11 -13 17 -18
13 -11 -4 7 -1 19 5 27 10 12 8 13 -9 10 -14 -3 -18 0 -14 12 4 10 8 11 13 3
4 -6 11 -12 16 -13 5 -1 8 -7 8 -14 -1 -6 5 -9 13 -6 7 3 13 2 11 -3 -2 -5 2
-9 7 -9 6 0 10 7 9 16 -1 15 -141 299 -153 310 -3 3 -42 -5 -86 -18z m-1681
-1035 c-3 -13 -6 -28 -7 -33 -1 -6 -10 -20 -18 -33 -13 -18 -18 -20 -22 -8 -3
8 -3 17 1 21 4 4 7 12 7 18 1 7 6 11 13 10 7 -2 13 2 13 7 1 6 3 15 4 20 1 6
3 12 4 15 0 3 3 5 5 5 3 0 3 -10 0 -22z"/>
<path d="M10903 2563 c4 -3 1 -13 -6 -22 -11 -14 -10 -14 5 -2 16 12 16 31 1
31 -4 0 -3 -3 0 -7z"/>
<path d="M8831 3522 c-6 -12 -11 -27 -11 -34 0 -7 7 0 15 16 9 16 13 31 11 33
-2 3 -9 -4 -15 -15z"/>
<path d="M11410 3429 c-85 -11 -255 -27 -378 -37 l-222 -17 60 -83 61 -82
-115 0 c-110 0 -114 -1 -119 -22 -3 -13 -19 -77 -36 -142 -17 -66 -30 -123
-29 -128 2 -4 86 34 188 84 102 51 192 93 200 95 30 4 56 11 90 26 19 9 49 21
67 28 17 7 29 18 25 24 -3 5 2 4 12 -4 14 -12 17 -12 14 -1 -2 8 4 15 12 16
33 3 33 7 1 13 -33 6 -29 9 135 106 93 55 175 99 182 99 7 -1 11 1 8 4 -4 3 6
14 21 24 l28 18 -25 -1 c-14 -1 -95 -10 -180 -20z"/>
<path d="M8620 3428 c0 -7 4 -19 9 -26 7 -11 10 -10 15 3 3 9 4 21 0 26 -8 13
-24 11 -24 -3z"/>
<path d="M8573 3422 c-6 -4 -15 -46 -19 -95 -7 -84 -6 -87 15 -87 20 0 21 5
21 95 0 52 -1 95 -2 95 -2 0 -8 -4 -15 -8z"/>
<path d="M8680 3410 c-36 -36 -16 -90 34 -90 34 0 54 -27 34 -46 -14 -15 -48
-10 -48 7 0 5 -9 9 -20 9 -22 0 -26 -20 -8 -38 17 -17 93 -15 107 2 7 8 11 30
9 48 -3 29 -8 35 -45 46 -31 10 -43 19 -43 33 0 14 7 19 25 19 14 0 25 -4 25
-10 0 -5 9 -10 20 -10 22 0 26 20 8 38 -19 19 -76 14 -98 -8z"/>
<path d="M11589 3413 c-13 -16 -12 -17 4 -4 9 7 17 15 17 17 0 8 -8 3 -21 -13z"/>
<path d="M11703 3415 c0 -8 4 -12 9 -9 5 3 6 10 3 15 -9 13 -12 11 -12 -6z"/>
<path d="M8239 3399 c-18 -18 -21 -30 -17 -86 5 -72 13 -83 70 -83 27 0 40 5
48 19 14 27 13 31 -10 31 -11 0 -20 -4 -20 -10 0 -5 -11 -10 -25 -10 -20 0
-25 5 -25 25 0 23 3 25 51 25 l52 0 -7 42 c-4 23 -12 48 -18 55 -17 21 -75 16
-99 -8z m75 -25 c11 -28 7 -34 -24 -34 -22 0 -30 5 -30 18 0 10 3 22 7 25 12
13 41 7 47 -9z"/>
<path d="M8374 3403 c2 -10 15 -53 27 -95 12 -43 27 -78 34 -78 24 0 44 28 65
95 13 39 25 76 28 83 3 10 -2 13 -19 10 -18 -2 -26 -14 -39 -55 -8 -28 -18
-55 -21 -58 -4 -3 -13 20 -21 52 -11 48 -18 59 -37 61 -18 3 -22 0 -17 -15z"/>
<path d="M9540 3376 c0 -4 27 -42 59 -85 51 -66 68 -81 121 -105 l62 -28 76
28 c78 28 284 113 291 120 3 2 -5 15 -18 27 -20 23 -30 24 -194 30 -94 4 -223
10 -284 14 -62 3 -113 3 -113 -1z"/>
<path d="M12589 3348 c0 -2 -2 -11 -4 -21 -3 -15 -1 -16 11 -6 7 6 11 15 8 20
-5 9 -13 12 -15 7z"/>
<path d="M12620 3339 c0 -15 18 -19 23 -6 3 8 -1 14 -9 14 -8 0 -14 -4 -14 -8z"/>
<path d="M12475 3331 c-3 -5 -2 -12 3 -15 5 -3 9 1 9 9 0 17 -3 19 -12 6z"/>
<path d="M12536 3331 c-3 -5 1 -11 9 -15 15 -6 29 7 18 18 -9 9 -21 8 -27 -3z"/>
<path d="M10105 3159 c-60 -26 -138 -59 -172 -71 -35 -13 -63 -25 -63 -28 0
-3 60 -75 133 -160 121 -141 136 -155 163 -152 46 5 338 106 337 117 -2 16
-267 344 -278 343 -5 0 -59 -22 -120 -49z"/>
<path d="M12675 3148 c-229 -57 -238 -62 -356 -197 -121 -138 -159 -200 -159
-257 0 -50 25 -79 45 -51 6 9 15 14 18 10 4 -3 7 0 7 7 0 7 3 10 7 7 3 -4 15
1 26 10 15 13 18 14 12 3 -5 -9 1 -7 15 5 14 12 20 14 15 5 -4 -8 4 -4 20 10
16 14 25 20 22 14 -3 -6 0 -11 7 -11 8 0 12 7 8 15 -3 10 -1 13 6 8 6 -3 13
-2 17 4 4 6 10 8 15 5 5 -3 11 -1 15 5 12 19 176 87 235 97 14 2 36 7 50 10
14 3 37 6 52 7 15 2 35 9 44 17 16 12 17 12 9 -1 -8 -13 -7 -13 10 0 10 8 20
14 22 13 9 -7 24 -2 19 6 -4 5 2 8 11 6 10 -2 18 -4 18 -5 0 -1 8 -3 18 -5 9
-2 17 2 17 8 0 8 3 7 9 -1 7 -11 9 -10 14 3 5 12 11 14 26 5 18 -9 19 -7 16
19 -4 32 -45 141 -77 204 l-18 37 -88 -1 c-48 -1 -105 -6 -127 -11z m100 -278
c3 -6 -1 -7 -9 -4 -18 7 -21 14 -7 14 6 0 13 -4 16 -10z"/>
<path d="M10956 2627 c3 -10 9 -15 12 -12 3 3 0 11 -7 18 -10 9 -11 8 -5 -6z"/>
<path d="M10869 2508 c-4 -15 -6 -50 -3 -40 3 6 10 10 14 7 5 -3 12 -1 15 5 4
6 1 9 -7 8 -7 -2 -12 3 -10 10 2 10 -6 19 -9 10z"/>
<path d="M11342 1769 c-53 -27 -66 -50 -58 -106 5 -38 59 -189 71 -202 6 -6
185 112 185 122 0 7 -149 207 -154 207 0 0 -20 -10 -44 -21z"/>
</g>
</svg>
